<svg xmlns="http://www.w3.org/2000/svg" xmlns:xlink="http://www.w3.org/1999/xlink" version="1.1" x="0px" y="0px" viewBox="0 0 512 512" style="enable-background:new 0 0 512 512;" xml:space="preserve"><title>SmartLicensePlate-internetofthings-iot-car-security</title><path d="M136,336h128v-80H136V336z M152,272h96v48h-96V272z"></path><path d="M88,264c-17.7,0-32,14.3-32,32s14.3,32,32,32s32-14.3,32-32C120,278.3,105.7,264,88,264z M88,312c-8.8,0-16-7.2-16-16  s7.2-16,16-16s16,7.2,16,16C104,304.8,96.8,312,88,312z"></path><path d="M312,312c-8.8,0-16-7.2-16-16c0-3.9,1.4-7.7,4.1-10.7l-11.9-10.7c-11.8,13.2-10.7,33.4,2.5,45.2  c13.2,11.8,33.4,10.7,45.2-2.5c2.8-3.1,4.9-6.7,6.3-10.7l-15.1-5.3C324.8,307.7,318.8,312,312,312z"></path><path d="M448,128c0-8.8,7.2-16,16-16V96c-17.7,0-32,14.3-32,32H448z"></path><path d="M464,64c-35.3,0-64,28.7-64,64h16c0-26.5,21.5-48,48-48V64z"></path><path d="M464,48V32c-53,0.1-95.9,43-96,96h16C384,83.8,419.8,48,464,48z"></path><rect x="448" y="320" width="16" height="16"></rect><path d="M496,208v-48c0-13.3-10.7-24-24-24s-24,10.7-24,24v11.1l-30,15l-3.7-7.3c-5.9-11.9-20.3-16.7-32.2-10.7c0,0,0,0,0,0  l-16.4,8.2l-30.6-85.7C329.4,74.6,314.3,64,297.4,64H102.3c-16.7,0-31.7,10.5-37.5,26.2L18.5,215.9c-1.6,4.4-2.5,9.1-2.5,13.8V344  c0,13.2,10.8,24,24,24h8v48c0,17.7,14.3,32,32,32s32-14.3,32-32v-48h176v48c0,17.7,14.3,32,32,32s32-14.3,32-32v-48h8  c13.2,0,24-10.8,24-24v-77.1l38.1-20.5c11.5-6.1,16-20.3,10.1-31.9l-7.1-14.2l22.9-11.4V208c0,10.2,6.4,19.2,16,22.6V288h-24  c-13.2,0-24,10.8-24,24v136h80V312c0-10.2-6.4-19.2-16-22.6v-58.8C489.6,227.2,496,218.2,496,208z M389.3,182.3  c4-2,8.8-0.4,10.7,3.6l3.7,7.3l-92,46l-20.1-8.1L389.3,182.3z M240,144v-16h-32v-16h76.5c3.4,0,6.5,2.2,7.6,5.5l22.7,68.1  c1.8,5.4,1.6,11.2-0.7,16.5l-28,14H108.4c-13.3,0-24-10.7-24-24c0-2.6,0.4-5.1,1.2-7.6l22.3-66.9c1.1-3.3,4.1-5.5,7.6-5.5H192v16  h-32v16H240z M96,416c0,8.8-7.2,16-16,16s-16-7.2-16-16v-48h32V416z M336,416c0,8.8-7.2,16-16,16s-16-7.2-16-16v-48h32V416z   M368,344c0,4.4-3.6,8-8,8H40c-4.4,0-8-3.6-8-8V229.7c0-2.8,0.5-5.6,1.5-8.3L79.8,95.7C83.3,86.3,92.3,80,102.3,80h195.1  c10.1,0,19.2,6.4,22.6,15.9l31.2,87.5l-19.3,9.7c0-4.3-0.7-8.5-2-12.6l-22.7-68.1C304,102.6,294.8,96,284.5,96H115.5  c-10.3,0-19.5,6.6-22.8,16.4l-22.3,66.9c-7,21,4.3,43.6,25.3,50.6c4.1,1.4,8.4,2.1,12.6,2.1h167.1c0.3,6.3,4.2,11.8,10,14l20.3,8.1  l8.1,20.2c4.9,12.3,18.9,18.3,31.2,13.4c0.8-0.3,1.7-0.7,2.5-1.1l20.4-11V344z M414.5,232.3L340,272.5c-3.9,2.1-8.7,0.6-10.8-3.2  c-0.1-0.3-0.3-0.5-0.4-0.8l-6.6-16.5l88.7-44.3l7.1,14.2C419.9,225.6,418.4,230.3,414.5,232.3z M480,432h-48v-64h48V432z M480,352  h-48v-40c0-4.4,3.6-8,8-8h32c4.4,0,8,3.6,8,8V352z M472,216c-4.4,0-8-3.6-8-8v-48c0-4.4,3.6-8,8-8s8,3.6,8,8v48  C480,212.4,476.4,216,472,216z"></path></svg>